#N canvas 1493 41 1673 988 10;
#X obj 442 41 bng 15 250 50 0 empty empty empty 0 -6 0 10 -262144 -1
-1;
#X obj 443 7 dumpOSC 12345;
#X text 353 5 port 12345 ->;
#N canvas 0 22 450 300 (subpatch) 0;
#X array table18 44103 float 0;
#X coords 0 1.02 44103 -1.02 200 130 1;
#X restore 1103 36 graph;
#X obj 882 216 adc~ 1;
#X msg 891 249 bang;
#X text 1118 168 -- 44103 samples ---;
#X obj 876 276 tabwrite~ table18;
#X obj 31 376 unpack f f f;
#X text 33 442 Time pitch loudness;
#X floatatom 31 421 5 0 0 0 - - -;
#X floatatom 79 422 5 0 0 0 - - -;
#X floatatom 126 422 5 0 0 0 - - -;
#X obj 191 378 unpack f f f;
#X text 193 444 Time pitch loudness;
#X floatatom 191 423 5 0 0 0 - - -;
#X floatatom 239 424 5 0 0 0 - - -;
#X floatatom 286 424 5 0 0 0 - - -;
#X obj 339 381 unpack f f f;
#X text 341 447 Time pitch loudness;
#X floatatom 339 426 5 0 0 0 - - -;
#X floatatom 387 427 5 0 0 0 - - -;
#X floatatom 434 427 5 0 0 0 - - -;
#X obj 480 382 unpack f f f;
#X text 482 448 Time pitch loudness;
#X floatatom 480 427 5 0 0 0 - - -;
#X floatatom 528 428 5 0 0 0 - - -;
#X floatatom 575 428 5 0 0 0 - - -;
#X obj 635 382 unpack f f f;
#X text 637 448 Time pitch loudness;
#X floatatom 635 427 5 0 0 0 - - -;
#X floatatom 683 428 5 0 0 0 - - -;
#X floatatom 730 428 5 0 0 0 - - -;
#X obj 775 384 unpack f f f;
#X text 777 450 Time pitch loudness;
#X floatatom 775 429 5 0 0 0 - - -;
#X floatatom 823 430 5 0 0 0 - - -;
#X floatatom 870 430 5 0 0 0 - - -;
#X obj 943 377 unpack f f f;
#X text 945 443 Time pitch loudness;
#X floatatom 943 422 5 0 0 0 - - -;
#X floatatom 991 423 5 0 0 0 - - -;
#X floatatom 1038 423 5 0 0 0 - - -;
#X obj 380 118 route 0 1 2 3 4 5 6 7;
#X obj 1101 373 unpack f f f;
#X text 1103 439 Time pitch loudness;
#X floatatom 1101 418 5 0 0 0 - - -;
#X floatatom 1149 419 5 0 0 0 - - -;
#X msg 565 112 pack 0 0 0;
#N canvas 0 23 1280 639 recording 0;
#X obj 545 43 inlet~;
#X obj 705 204 *~;
#X obj 707 303 snapshot~ 10;
#X obj 787 54 metro 10;
#X obj 796 5 tgl 15 0 empty empty empty 17 7 0 10 -262144 -1 -1 0 1
;
#X obj 711 332 hsl 128 15 0 127 0 0 empty empty empty -2 -8 0 10 -262144
-1 -1 0 1;
#X floatatom 753 171 5 0 0 0 - - -;
#X obj 706 257 /~ 0.1;
#X obj 707 277 *~ 127;
#X obj 633 382 > 0.1;
#X obj 764 469 tgl 15 0 empty empty empty 17 7 0 10 -262144 -1 -1 0
1;
#X obj 712 356 hsl 128 15 0 127 0 0 empty empty empty -2 -8 0 10 -262144
-1 -1 0 1;
#X obj 764 488 change;
#X obj 756 578 tgl 15 0 empty empty empty 17 7 0 10 -262144 -1 -1 0
1;
#X obj 925 461 timer;
#X obj 836 499 sel 1 0;
#X floatatom 921 508 5 0 0 0 - - -;
#X obj 704 228 lop~ 4;
#X obj 835 581 delay 1000;
#X msg 833 622 0;
#X obj 707 152 *~;
#X obj 721 128 tgl 15 0 empty empty empty 17 7 0 10 -262144 -1 -1 0
1;
#X obj 920 537 clip 0 1000;
#X floatatom 923 575 5 0 0 0 - - -;
#X text 856 329 record thresh;
#X obj 924 601 / 1000;
#X text 1003 653 recording length in samples;
#X obj 1094 487 / 1;
#X msg 1095 442 1;
#X floatatom 1089 542 5 0 0 0 - - -;
#X text 1126 544 phasor freq (hz);
#X obj 1099 402 t b f;
#X obj 614 42 inlet;
#X msg 689 38 0;
#X msg 724 38 1;
#X obj 174 602 outlet;
#X text 138 628 begin to record;
#X obj 288 603 outlet;
#X text 273 629 phasor freq (hz);
#X obj 433 600 outlet;
#X text 412 627 recording length in samples;
#X floatatom 927 657 10 0 0 0 - - -;
#X obj 924 626 * 44100;
#X obj 869 28 loadbang;
#X obj 713 380 hsl 128 15 0 127 0 0 empty empty empty -2 -8 0 10 -262144
-1 -1 0 1;
#X obj 636 351 < 1;
#X obj 578 416 *;
#X floatatom 731 426 5 0 0 0 - - -;
#X text 960 576 recording length;
#X connect 0 0 20 0;
#X connect 1 0 17 0;
#X connect 2 0 5 0;
#X connect 2 0 9 0;
#X connect 3 0 2 0;
#X connect 4 0 3 0;
#X connect 5 0 45 0;
#X connect 6 0 17 1;
#X connect 7 0 8 0;
#X connect 8 0 2 0;
#X connect 9 0 46 1;
#X connect 9 0 10 0;
#X connect 10 0 12 0;
#X connect 11 0 9 1;
#X connect 11 0 47 0;
#X connect 12 0 13 0;
#X connect 13 0 15 0;
#X connect 14 0 16 0;
#X connect 15 0 14 0;
#X connect 15 0 18 0;
#X connect 15 0 35 0;
#X connect 15 1 14 1;
#X connect 16 0 22 0;
#X connect 17 0 7 0;
#X connect 18 0 19 0;
#X connect 19 0 21 0;
#X connect 20 0 1 1;
#X connect 20 0 1 0;
#X connect 21 0 20 1;
#X connect 22 0 23 0;
#X connect 23 0 25 0;
#X connect 25 0 31 0;
#X connect 25 0 42 0;
#X connect 27 0 29 0;
#X connect 27 0 37 0;
#X connect 28 0 27 0;
#X connect 31 0 28 0;
#X connect 31 1 27 1;
#X connect 32 0 21 0;
#X connect 33 0 21 0;
#X connect 34 0 21 0;
#X connect 42 0 39 0;
#X connect 42 0 41 0;
#X connect 43 0 3 0;
#X connect 44 0 45 1;
#X connect 45 0 46 0;
#X restore 941 214 pd recording;
#X obj 640 62 bng 15 250 50 0 empty empty empty 17 7 0 10 -262144 -1
-1;
#X obj 163 608 output~;
#X obj 3 618 output~;
#N canvas 11 40 1223 667 smoothloop_new_2 0;
#X floatatom 93 13 5 0 0 0 - - -;
#X obj 53 10 int;
#X text 363 164 loudness (length of intersection);
#X obj 625 486 *~;
#X obj 22 120 line~;
#X msg 31 87 \$1 100;
#X obj 42 35 / 127;
#X obj 169 226 hip~ 5;
#X text 209 26 <-- frequency (Hz.);
#X text 295 63 <-- chunk size (100ths of a second);
#X obj 169 116 -~ 0.5;
#X obj 169 166 cos~;
#X obj 169 199 *~;
#X obj 169 86 phasor~;
#X obj 169 141 *~ 0.5;
#X obj 291 224 tabwrite~ cos-output;
#X obj 291 200 bng 15 250 50 0 empty empty empty 0 -6 0 8 -262144 -1
-1;
#X text 312 197 <-- click to graph envelope;
#X obj 234 115 *~ 44100;
#X obj 167 -36 mtof;
#X obj 167 -9 / 261.62;
#X obj 208 -64 int;
#X obj 234 166 tabread4~ table18;
#X text 285 -23 ENVELOPING YOUR LOOPING SAMPLER;
#X floatatom 252 65 5 0 0 0 - - -;
#X floatatom 90 72 5 0 0 0 - - -;
#X obj 43 -89 inlet;
#X obj 380 -89 inlet;
#X obj 103 -89 inlet;
#X obj 164 -93 inlet;
#X obj 626 538 outlet~;
#N canvas 1737 174 637 687 envnrafe 0;
#X obj 20 -304 inlet~;
#X obj 19 -186 +~;
#X obj 20 -261 delwrite~ coswave 500;
#X obj 19 -224 delread~ coswave 1000;
#X obj 20 -154 outlet~;
#X connect 0 0 2 0;
#X connect 0 0 1 1;
#X connect 1 0 4 0;
#X connect 3 0 1 0;
#X restore 70 159 pd envnrafe;
#X obj 66 221 clip~ 0 1;
#X floatatom 296 -47 5 0 0 0 - - -;
#X obj 172 41 *;
#X floatatom 108 -41 5 0 0 0 - - -;
#X floatatom 379 -61 10 0 0 0 - - -;
#X floatatom 11 -25 5 0 0 0 - - -;
#X obj 234 140 +~ 1;
#X text 652 -92 <-- chunk size (100ths of a second);
#X obj 609 84 line~;
#X obj 609 59 pack 0 100;
#X text 643 10 <-- read point in 100ths of a second;
#X obj 660 -45 s chunk-size;
#X text 772 -69 chunk size;
#X text 772 -47 in seconds;
#X obj 604 -6 s chunk-size-samples;
#X text 794 -15 ... and in samples;
#X obj 609 107 s~ read-pt;
#X obj 609 34 * 44100;
#X obj 601 -77 * 44100;
#X obj 929 114 s~ phase;
#X floatatom 929 -40 0 0 0 0 - - -;
#X obj 940 15 r chunk-size;
#X obj 940 40 t b f;
#X obj 929 60 /;
#X obj 929 -63 loadbang;
#X obj 929 -15 expr pow(2 \, $f1/120);
#X text 1118 -15 speed change;
#X obj 929 88 phasor~;
#X obj 1016 107 +~ 0.5;
#X obj 1017 133 wrap~;
#X obj 1017 158 s~ phase2;
#X text 964 -40 <-- transposition \, halftones/10;
#X text 967 63 loop frequency;
#X text 1077 94 second phase signal;
#X text 1077 114 out of phase from;
#X text 1076 135 first one;
#X obj 583 420 hip~ 5;
#X obj 584 289 +~ 1;
#X obj 584 367 *~;
#X obj 584 318 +~;
#X obj 640 317 samphold~;
#X obj 584 217 samphold~;
#X obj 584 264 *~;
#X obj 749 278 r~ phase;
#X obj 672 217 r~ phase;
#X obj 606 241 r~ phase;
#X obj 660 292 r~ phase;
#X obj 749 302 -~ 0.5;
#X obj 749 326 *~ 0.5;
#X obj 749 349 cos~;
#X obj 641 269 r~ read-pt;
#X obj 584 192 r chunk-size-samples;
#X obj 838 300 +~ 1;
#X obj 838 378 *~;
#X obj 838 329 +~;
#X obj 893 328 samphold~;
#X obj 838 228 samphold~;
#X obj 838 275 *~;
#X obj 1003 313 -~ 0.5;
#X obj 1003 337 *~ 0.5;
#X obj 1003 360 cos~;
#X obj 894 280 r~ read-pt;
#X obj 838 203 r chunk-size-samples;
#X obj 927 229 r~ phase2;
#X obj 860 252 r~ phase2;
#X obj 1003 289 r~ phase2;
#X obj 903 303 r~ phase2;
#X obj 583 396 +~;
#X text 634 174 copy 1;
#X text 891 183 copy 2;
#X obj 584 343 tabread4~ table18;
#X obj 838 354 tabread4~ table18;
#X floatatom 738 62 5 0 0 0 - - -;
#X floatatom 717 118 5 0 0 0 - - -;
#X floatatom 872 44 5 0 0 0 - - -;
#X floatatom 552 122 5 0 0 0 - - -;
#X obj 160 362 snapshot~;
#X floatatom 160 409 5 0 0 0 - - -;
#X floatatom 248 8 5 0 0 0 - - -;
#X floatatom 864 94 5 0 0 0 - - -;
#X floatatom 1061 40 5 0 0 0 - - -;
#X floatatom 507 225 5 0 0 0 - - -;
#X msg 567 -55 44100;
#X msg 566 6 0;
#X obj 507 -26 loadbang;
#X obj 893 445 snapshot~;
#X floatatom 893 492 5 0 0 0 - - -;
#X obj 976 534 tgl 15 0 empty empty empty 17 7 0 10 -262144 -1 -1 0
1;
#X obj 985 582 metro 10;
#X floatatom 1014 247 5 0 0 0 - - -;
#X connect 0 0 1 1;
#X connect 1 0 6 0;
#X connect 3 0 30 0;
#X connect 4 0 32 0;
#X connect 5 0 4 0;
#X connect 6 0 5 0;
#X connect 6 0 25 0;
#X connect 10 0 14 0;
#X connect 11 0 15 0;
#X connect 11 0 31 0;
#X connect 12 0 7 0;
#X connect 13 0 10 0;
#X connect 13 0 18 0;
#X connect 14 0 11 0;
#X connect 16 0 15 0;
#X connect 18 0 38 0;
#X connect 19 0 57 0;
#X connect 19 0 110 0;
#X connect 19 0 20 0;
#X connect 20 0 24 0;
#X connect 20 0 34 0;
#X connect 22 0 12 1;
#X connect 26 0 1 0;
#X connect 26 0 37 0;
#X connect 27 0 36 0;
#X connect 27 0 43 0;
#X connect 27 0 50 1;
#X connect 27 0 46 0;
#X connect 28 0 34 1;
#X connect 28 0 35 0;
#X connect 29 0 33 0;
#X connect 29 0 21 0;
#X connect 29 0 19 0;
#X connect 31 0 12 0;
#X connect 32 0 3 1;
#X connect 32 0 108 0;
#X connect 34 0 13 0;
#X connect 34 0 59 0;
#X connect 38 0 22 0;
#X connect 40 0 48 0;
#X connect 41 0 40 0;
#X connect 41 0 107 0;
#X connect 49 0 41 0;
#X connect 50 0 104 0;
#X connect 52 0 57 0;
#X connect 53 0 54 0;
#X connect 53 0 112 0;
#X connect 54 0 55 0;
#X connect 54 1 55 1;
#X connect 55 0 111 0;
#X connect 56 0 52 0;
#X connect 57 0 55 0;
#X connect 57 0 106 0;
#X connect 59 0 51 0;
#X connect 59 0 60 0;
#X connect 59 0 117 0;
#X connect 60 0 61 0;
#X connect 61 0 62 0;
#X connect 68 0 3 0;
#X connect 69 0 71 0;
#X connect 70 0 99 0;
#X connect 71 0 102 0;
#X connect 72 0 71 1;
#X connect 73 0 74 0;
#X connect 74 0 69 0;
#X connect 75 0 79 0;
#X connect 76 0 73 1;
#X connect 77 0 74 1;
#X connect 78 0 72 1;
#X connect 79 0 80 0;
#X connect 80 0 81 0;
#X connect 81 0 70 1;
#X connect 82 0 72 0;
#X connect 83 0 73 0;
#X connect 83 0 113 0;
#X connect 84 0 86 0;
#X connect 85 0 99 1;
#X connect 86 0 103 0;
#X connect 87 0 86 1;
#X connect 88 0 89 0;
#X connect 89 0 84 0;
#X connect 90 0 91 0;
#X connect 91 0 92 0;
#X connect 92 0 85 1;
#X connect 93 0 87 0;
#X connect 94 0 88 0;
#X connect 94 0 121 0;
#X connect 95 0 88 1;
#X connect 96 0 89 1;
#X connect 97 0 90 0;
#X connect 98 0 87 1;
#X connect 99 0 68 0;
#X connect 102 0 70 0;
#X connect 103 0 85 0;
#X connect 108 0 109 0;
#X connect 114 0 46 0;
#X connect 115 0 49 0;
#X connect 116 0 115 0;
#X connect 117 0 118 0;
#X connect 119 0 120 0;
#X connect 120 0 117 0;
#X restore 1 554 pd smoothloop_new_2;
#N canvas 1360 45 1223 667 smoothloop_new_2 0;
#X floatatom 93 13 5 0 0 0 - - -;
#X obj 53 10 int;
#X text 363 164 loudness (length of intersection);
#X obj 625 486 *~;
#X obj 22 120 line~;
#X msg 31 87 \$1 100;
#X obj 42 35 / 127;
#X text 209 26 <-- frequency (Hz.);
#X text 295 63 <-- chunk size (100ths of a second);
#X obj 167 -36 mtof;
#X obj 167 -9 / 261.62;
#X obj 167 -63 int;
#X text 285 -23 ENVELOPING YOUR LOOPING SAMPLER;
#X floatatom 252 65 5 0 0 0 - - -;
#X floatatom 90 72 5 0 0 0 - - -;
#X obj 43 -89 inlet;
#X obj 380 -89 inlet;
#X obj 103 -89 inlet;
#X obj 164 -93 inlet;
#X obj 626 538 outlet~;
#X obj 66 221 clip~ 0 1;
#X floatatom 296 -47 5 0 0 0 - - -;
#X obj 172 41 *;
#X floatatom 108 -41 5 0 0 0 - - -;
#X floatatom 379 -61 10 0 0 0 - - -;
#X floatatom 11 -25 5 0 0 0 - - -;
#X text 652 -92 <-- chunk size (100ths of a second);
#X obj 609 84 line~;
#X obj 609 59 pack 0 100;
#X text 643 10 <-- read point in 100ths of a second;
#X text 772 -69 chunk size;
#X text 772 -47 in seconds;
#X text 794 -15 ... and in samples;
#X obj 609 34 * 44100;
#X obj 601 -77 * 44100;
#X floatatom 929 -40 0 0 0 0 - - -;
#X obj 940 40 t b f;
#X obj 929 60 /;
#X obj 929 -63 loadbang;
#X obj 929 -15 expr pow(2 \, $f1/120);
#X text 1118 -15 speed change;
#X obj 929 88 phasor~;
#X obj 1016 107 +~ 0.5;
#X obj 1017 133 wrap~;
#X text 964 -40 <-- transposition \, halftones/10;
#X text 967 63 loop frequency;
#X text 1077 94 second phase signal;
#X text 1077 114 out of phase from;
#X text 1076 135 first one;
#X obj 583 420 hip~ 5;
#X obj 584 289 +~ 1;
#X obj 584 367 *~;
#X obj 584 318 +~;
#X obj 640 317 samphold~;
#X obj 584 217 samphold~;
#X obj 584 264 *~;
#X obj 749 302 -~ 0.5;
#X obj 749 326 *~ 0.5;
#X obj 749 349 cos~;
#X obj 838 300 +~ 1;
#X obj 838 378 *~;
#X obj 838 329 +~;
#X obj 893 328 samphold~;
#X obj 838 228 samphold~;
#X obj 838 275 *~;
#X obj 1003 313 -~ 0.5;
#X obj 1003 337 *~ 0.5;
#X obj 1003 360 cos~;
#X obj 583 396 +~;
#X text 634 174 copy 1;
#X text 891 183 copy 2;
#X obj 584 343 tabread4~ table18;
#X obj 838 354 tabread4~ table18;
#X floatatom 738 62 5 0 0 0 - - -;
#X floatatom 717 118 5 0 0 0 - - -;
#X floatatom 872 44 5 0 0 0 - - -;
#X floatatom 552 122 5 0 0 0 - - -;
#X obj 160 362 snapshot~;
#X floatatom 160 409 5 0 0 0 - - -;
#X floatatom 248 8 5 0 0 0 - - -;
#X floatatom 864 94 5 0 0 0 - - -;
#X floatatom 1061 40 5 0 0 0 - - -;
#X floatatom 507 225 5 0 0 0 - - -;
#X msg 567 -55 44100;
#X msg 566 6 0;
#X obj 507 -26 loadbang;
#X obj 893 445 snapshot~;
#X floatatom 893 492 5 0 0 0 - - -;
#X obj 976 534 tgl 15 0 empty empty empty 17 7 0 10 -262144 -1 -1 0
1;
#X obj 985 582 metro 10;
#X floatatom 1014 247 5 0 0 0 - - -;
#X obj 604 -6 s chunk-size-samples1;
#X obj 584 192 r chunk-size-samples1;
#X obj 838 203 r chunk-size-samples1;
#X obj 660 -45 s chunk-size1;
#X obj 940 15 r chunk-size1;
#X obj 894 280 r~ read-pt1;
#X obj 903 303 r~ phase21;
#X obj 1003 289 r~ phase21;
#X obj 749 278 r~ phase1;
#X obj 672 217 r~ phase1;
#X obj 606 241 r~ phase1;
#X obj 641 269 r~ read-pt1;
#X obj 660 292 r~ phase1;
#X obj 929 114 s~ phase1;
#X obj 1017 158 s~ phase21;
#X obj 927 229 r~ phase21;
#X obj 860 252 r~ phase21;
#X obj 609 107 s~ read-pt1;
#X connect 0 0 1 1;
#X connect 1 0 6 0;
#X connect 3 0 19 0;
#X connect 4 0 20 0;
#X connect 5 0 4 0;
#X connect 6 0 5 0;
#X connect 6 0 14 0;
#X connect 9 0 39 0;
#X connect 9 0 79 0;
#X connect 9 0 10 0;
#X connect 10 0 13 0;
#X connect 10 0 22 0;
#X connect 11 0 9 0;
#X connect 15 0 1 0;
#X connect 15 0 25 0;
#X connect 16 0 24 0;
#X connect 16 0 34 1;
#X connect 16 0 91 0;
#X connect 16 0 94 0;
#X connect 17 0 22 1;
#X connect 17 0 23 0;
#X connect 18 0 21 0;
#X connect 18 0 11 0;
#X connect 20 0 3 1;
#X connect 20 0 77 0;
#X connect 22 0 41 0;
#X connect 27 0 108 0;
#X connect 28 0 27 0;
#X connect 28 0 76 0;
#X connect 33 0 28 0;
#X connect 34 0 73 0;
#X connect 35 0 39 0;
#X connect 36 0 37 0;
#X connect 36 1 37 1;
#X connect 37 0 80 0;
#X connect 38 0 35 0;
#X connect 39 0 37 0;
#X connect 39 0 75 0;
#X connect 41 0 42 0;
#X connect 41 0 86 0;
#X connect 41 0 104 0;
#X connect 42 0 43 0;
#X connect 43 0 105 0;
#X connect 49 0 3 0;
#X connect 50 0 52 0;
#X connect 51 0 68 0;
#X connect 52 0 71 0;
#X connect 53 0 52 1;
#X connect 54 0 55 0;
#X connect 55 0 50 0;
#X connect 56 0 57 0;
#X connect 57 0 58 0;
#X connect 58 0 51 1;
#X connect 59 0 61 0;
#X connect 60 0 68 1;
#X connect 61 0 72 0;
#X connect 62 0 61 1;
#X connect 63 0 64 0;
#X connect 64 0 59 0;
#X connect 65 0 66 0;
#X connect 66 0 67 0;
#X connect 67 0 60 1;
#X connect 68 0 49 0;
#X connect 71 0 51 0;
#X connect 72 0 60 0;
#X connect 77 0 78 0;
#X connect 83 0 91 0;
#X connect 84 0 33 0;
#X connect 85 0 84 0;
#X connect 86 0 87 0;
#X connect 88 0 89 0;
#X connect 89 0 86 0;
#X connect 92 0 54 0;
#X connect 92 0 82 0;
#X connect 93 0 63 0;
#X connect 93 0 90 0;
#X connect 95 0 36 0;
#X connect 95 0 81 0;
#X connect 96 0 62 0;
#X connect 97 0 62 1;
#X connect 98 0 65 0;
#X connect 99 0 56 0;
#X connect 100 0 54 1;
#X connect 101 0 55 1;
#X connect 102 0 53 0;
#X connect 103 0 53 1;
#X connect 106 0 63 1;
#X connect 107 0 64 1;
#X restore 158 547 pd smoothloop_new_2;
#X obj 948 238 s phasorf;
#X obj 1010 237 s recordl;
#X obj 194 512 r phasorf;
#X obj 268 515 r recordl;
#X obj 325 602 output~;
#N canvas 1360 45 1223 667 smoothloop_new_2 0;
#X floatatom 93 13 5 0 0 0 - - -;
#X obj 53 10 int;
#X text 363 164 loudness (length of intersection);
#X obj 625 486 *~;
#X obj 22 120 line~;
#X msg 31 87 \$1 100;
#X obj 42 35 / 127;
#X obj 169 226 hip~ 5;
#X text 209 26 <-- frequency (Hz.);
#X text 295 63 <-- chunk size (100ths of a second);
#X obj 169 116 -~ 0.5;
#X obj 169 166 cos~;
#X obj 169 199 *~;
#X obj 169 86 phasor~;
#X obj 169 141 *~ 0.5;
#X obj 291 224 tabwrite~ cos-output;
#X obj 291 200 bng 15 250 50 0 empty empty empty 0 -6 0 8 -262144 -1
-1;
#X text 312 197 <-- click to graph envelope;
#X obj 234 115 *~ 44100;
#X obj 167 -36 mtof;
#X obj 167 -9 / 261.62;
#X obj 167 -63 int;
#X obj 234 166 tabread4~ table18;
#X text 285 -23 ENVELOPING YOUR LOOPING SAMPLER;
#X floatatom 252 65 5 0 0 0 - - -;
#X floatatom 90 72 5 0 0 0 - - -;
#X obj 43 -89 inlet;
#X obj 380 -89 inlet;
#X obj 103 -89 inlet;
#X obj 164 -93 inlet;
#X obj 626 538 outlet~;
#N canvas 1737 174 637 687 envnrafe 0;
#X obj 20 -304 inlet~;
#X obj 19 -186 +~;
#X obj 20 -261 delwrite~ coswave 500;
#X obj 19 -224 delread~ coswave 1000;
#X obj 20 -154 outlet~;
#X connect 0 0 2 0;
#X connect 0 0 1 1;
#X connect 1 0 4 0;
#X connect 3 0 1 0;
#X restore 70 159 pd envnrafe;
#X obj 66 221 clip~ 0 1;
#X floatatom 296 -47 5 0 0 0 - - -;
#X obj 172 41 *;
#X floatatom 108 -41 5 0 0 0 - - -;
#X floatatom 379 -61 10 0 0 0 - - -;
#X floatatom 11 -25 5 0 0 0 - - -;
#X obj 234 140 +~ 1;
#X text 652 -92 <-- chunk size (100ths of a second);
#X obj 609 84 line~;
#X obj 609 59 pack 0 100;
#X text 643 10 <-- read point in 100ths of a second;
#X text 772 -69 chunk size;
#X text 772 -47 in seconds;
#X text 794 -15 ... and in samples;
#X obj 609 34 * 44100;
#X obj 601 -77 * 44100;
#X floatatom 929 -40 0 0 0 0 - - -;
#X obj 940 40 t b f;
#X obj 929 60 /;
#X obj 929 -63 loadbang;
#X obj 929 -15 expr pow(2 \, $f1/120);
#X text 1118 -15 speed change;
#X obj 929 88 phasor~;
#X obj 1016 107 +~ 0.5;
#X obj 1017 133 wrap~;
#X text 964 -40 <-- transposition \, halftones/10;
#X text 967 63 loop frequency;
#X text 1077 94 second phase signal;
#X text 1077 114 out of phase from;
#X text 1076 135 first one;
#X obj 583 420 hip~ 5;
#X obj 584 289 +~ 1;
#X obj 584 367 *~;
#X obj 584 318 +~;
#X obj 640 317 samphold~;
#X obj 584 217 samphold~;
#X obj 584 264 *~;
#X obj 749 302 -~ 0.5;
#X obj 749 326 *~ 0.5;
#X obj 749 349 cos~;
#X obj 838 300 +~ 1;
#X obj 838 378 *~;
#X obj 838 329 +~;
#X obj 893 328 samphold~;
#X obj 838 228 samphold~;
#X obj 838 275 *~;
#X obj 1003 313 -~ 0.5;
#X obj 1003 337 *~ 0.5;
#X obj 1003 360 cos~;
#X obj 583 396 +~;
#X text 634 174 copy 1;
#X text 891 183 copy 2;
#X obj 584 343 tabread4~ table18;
#X obj 838 354 tabread4~ table18;
#X floatatom 738 62 5 0 0 0 - - -;
#X floatatom 717 118 5 0 0 0 - - -;
#X floatatom 872 44 5 0 0 0 - - -;
#X floatatom 552 122 5 0 0 0 - - -;
#X obj 160 362 snapshot~;
#X floatatom 160 409 5 0 0 0 - - -;
#X floatatom 248 8 5 0 0 0 - - -;
#X floatatom 864 94 5 0 0 0 - - -;
#X floatatom 1061 40 5 0 0 0 - - -;
#X floatatom 507 225 5 0 0 0 - - -;
#X msg 567 -55 44100;
#X msg 566 6 0;
#X obj 507 -26 loadbang;
#X obj 893 445 snapshot~;
#X floatatom 893 492 5 0 0 0 - - -;
#X obj 976 534 tgl 15 0 empty empty empty 17 7 0 10 -262144 -1 -1 0
1;
#X obj 985 582 metro 10;
#X floatatom 1014 247 5 0 0 0 - - -;
#X obj 660 -45 s chunk-size_2;
#X obj 604 -6 s chunk-size-samples_2;
#X obj 609 107 s~ read-pt_2;
#X obj 940 15 r chunk-size_2;
#X obj 929 114 s~ phase_2;
#X obj 1017 158 s~ phase2_2;
#X obj 584 192 r chunk-size-samples_2;
#X obj 672 217 r~ phase_2;
#X obj 641 269 r~ read-pt_2;
#X obj 749 278 r~ phase_2;
#X obj 660 292 r~ phase_2;
#X obj 838 203 r chunk-size-samples_2;
#X obj 927 229 r~ phase2_2;
#X obj 860 252 r~ phase2_2;
#X obj 894 280 r~ read-pt_2;
#X obj 903 303 r~ phase2_2;
#X obj 1003 289 r~ phase2_2;
#X obj 606 241 r~ phase_2;
#X connect 0 0 1 1;
#X connect 1 0 6 0;
#X connect 3 0 30 0;
#X connect 4 0 32 0;
#X connect 5 0 4 0;
#X connect 6 0 5 0;
#X connect 6 0 25 0;
#X connect 10 0 14 0;
#X connect 11 0 15 0;
#X connect 11 0 31 0;
#X connect 12 0 7 0;
#X connect 13 0 10 0;
#X connect 13 0 18 0;
#X connect 14 0 11 0;
#X connect 16 0 15 0;
#X connect 18 0 38 0;
#X connect 19 0 52 0;
#X connect 19 0 92 0;
#X connect 19 0 20 0;
#X connect 20 0 24 0;
#X connect 20 0 34 0;
#X connect 21 0 19 0;
#X connect 22 0 12 1;
#X connect 26 0 1 0;
#X connect 26 0 37 0;
#X connect 27 0 36 0;
#X connect 27 0 47 1;
#X connect 27 0 104 0;
#X connect 27 0 105 0;
#X connect 28 0 34 1;
#X connect 28 0 35 0;
#X connect 29 0 33 0;
#X connect 29 0 21 0;
#X connect 31 0 12 0;
#X connect 32 0 3 1;
#X connect 32 0 90 0;
#X connect 34 0 13 0;
#X connect 34 0 54 0;
#X connect 38 0 22 0;
#X connect 40 0 106 0;
#X connect 41 0 40 0;
#X connect 41 0 89 0;
#X connect 46 0 41 0;
#X connect 47 0 86 0;
#X connect 48 0 52 0;
#X connect 49 0 50 0;
#X connect 49 1 50 1;
#X connect 50 0 93 0;
#X connect 51 0 48 0;
#X connect 52 0 50 0;
#X connect 52 0 88 0;
#X connect 54 0 55 0;
#X connect 54 0 99 0;
#X connect 54 0 108 0;
#X connect 55 0 56 0;
#X connect 56 0 109 0;
#X connect 62 0 3 0;
#X connect 63 0 65 0;
#X connect 64 0 81 0;
#X connect 65 0 84 0;
#X connect 66 0 65 1;
#X connect 67 0 68 0;
#X connect 68 0 63 0;
#X connect 69 0 70 0;
#X connect 70 0 71 0;
#X connect 71 0 64 1;
#X connect 72 0 74 0;
#X connect 73 0 81 1;
#X connect 74 0 85 0;
#X connect 75 0 74 1;
#X connect 76 0 77 0;
#X connect 77 0 72 0;
#X connect 78 0 79 0;
#X connect 79 0 80 0;
#X connect 80 0 73 1;
#X connect 81 0 62 0;
#X connect 84 0 64 0;
#X connect 85 0 73 0;
#X connect 90 0 91 0;
#X connect 96 0 105 0;
#X connect 97 0 46 0;
#X connect 98 0 97 0;
#X connect 99 0 100 0;
#X connect 101 0 102 0;
#X connect 102 0 99 0;
#X connect 107 0 49 0;
#X connect 107 0 94 0;
#X connect 110 0 67 0;
#X connect 110 0 95 0;
#X connect 111 0 67 1;
#X connect 112 0 66 0;
#X connect 113 0 69 0;
#X connect 114 0 66 1;
#X connect 115 0 76 0;
#X connect 115 0 103 0;
#X connect 116 0 76 1;
#X connect 117 0 77 1;
#X connect 118 0 75 0;
#X connect 119 0 75 1;
#X connect 120 0 78 0;
#X connect 121 0 68 1;
#X restore 326 559 pd smoothloop_new_2;
#X obj 362 524 r phasorf;
#X obj 436 527 r recordl;
#X obj 486 606 output~;
#N canvas 1360 45 1223 667 smoothloop_new_2 0;
#X floatatom 93 13 5 0 0 0 - - -;
#X obj 53 10 int;
#X text 363 164 loudness (length of intersection);
#X obj 625 486 *~;
#X obj 22 120 line~;
#X msg 31 87 \$1 100;
#X obj 42 35 / 127;
#X obj 169 226 hip~ 5;
#X text 209 26 <-- frequency (Hz.);
#X text 295 63 <-- chunk size (100ths of a second);
#X obj 169 116 -~ 0.5;
#X obj 169 166 cos~;
#X obj 169 199 *~;
#X obj 169 86 phasor~;
#X obj 169 141 *~ 0.5;
#X obj 291 224 tabwrite~ cos-output;
#X obj 291 200 bng 15 250 50 0 empty empty empty 0 -6 0 8 -262144 -1
-1;
#X text 312 197 <-- click to graph envelope;
#X obj 234 115 *~ 44100;
#X obj 167 -36 mtof;
#X obj 167 -9 / 261.62;
#X obj 167 -63 int;
#X obj 234 166 tabread4~ table18;
#X text 285 -23 ENVELOPING YOUR LOOPING SAMPLER;
#X floatatom 252 65 5 0 0 0 - - -;
#X floatatom 90 72 5 0 0 0 - - -;
#X obj 43 -89 inlet;
#X obj 380 -89 inlet;
#X obj 103 -89 inlet;
#X obj 164 -93 inlet;
#X obj 626 538 outlet~;
#N canvas 1737 174 637 687 envnrafe 0;
#X obj 20 -304 inlet~;
#X obj 19 -186 +~;
#X obj 20 -261 delwrite~ coswave 500;
#X obj 19 -224 delread~ coswave 1000;
#X obj 20 -154 outlet~;
#X connect 0 0 2 0;
#X connect 0 0 1 1;
#X connect 1 0 4 0;
#X connect 3 0 1 0;
#X restore 70 159 pd envnrafe;
#X obj 66 221 clip~ 0 1;
#X floatatom 296 -47 5 0 0 0 - - -;
#X obj 172 41 *;
#X floatatom 108 -41 5 0 0 0 - - -;
#X floatatom 379 -61 10 0 0 0 - - -;
#X floatatom 11 -25 5 0 0 0 - - -;
#X obj 234 140 +~ 1;
#X text 652 -92 <-- chunk size (100ths of a second);
#X obj 609 84 line~;
#X obj 609 59 pack 0 100;
#X text 643 10 <-- read point in 100ths of a second;
#X text 772 -69 chunk size;
#X text 772 -47 in seconds;
#X text 794 -15 ... and in samples;
#X obj 609 34 * 44100;
#X obj 601 -77 * 44100;
#X floatatom 929 -40 0 0 0 0 - - -;
#X obj 940 40 t b f;
#X obj 929 60 /;
#X obj 929 -63 loadbang;
#X obj 929 -15 expr pow(2 \, $f1/120);
#X text 1118 -15 speed change;
#X obj 929 88 phasor~;
#X obj 1016 107 +~ 0.5;
#X obj 1017 133 wrap~;
#X text 964 -40 <-- transposition \, halftones/10;
#X text 967 63 loop frequency;
#X text 1077 94 second phase signal;
#X text 1077 114 out of phase from;
#X text 1076 135 first one;
#X obj 583 420 hip~ 5;
#X obj 584 289 +~ 1;
#X obj 584 367 *~;
#X obj 584 318 +~;
#X obj 640 317 samphold~;
#X obj 584 217 samphold~;
#X obj 584 264 *~;
#X obj 749 302 -~ 0.5;
#X obj 749 326 *~ 0.5;
#X obj 749 349 cos~;
#X obj 838 300 +~ 1;
#X obj 838 378 *~;
#X obj 838 329 +~;
#X obj 893 328 samphold~;
#X obj 838 228 samphold~;
#X obj 838 275 *~;
#X obj 1003 313 -~ 0.5;
#X obj 1003 337 *~ 0.5;
#X obj 1003 360 cos~;
#X obj 583 396 +~;
#X text 634 174 copy 1;
#X text 891 183 copy 2;
#X obj 584 343 tabread4~ table18;
#X obj 838 354 tabread4~ table18;
#X floatatom 738 62 5 0 0 0 - - -;
#X floatatom 717 118 5 0 0 0 - - -;
#X floatatom 872 44 5 0 0 0 - - -;
#X floatatom 552 122 5 0 0 0 - - -;
#X obj 160 362 snapshot~;
#X floatatom 160 409 5 0 0 0 - - -;
#X floatatom 248 8 5 0 0 0 - - -;
#X floatatom 864 94 5 0 0 0 - - -;
#X floatatom 1061 40 5 0 0 0 - - -;
#X floatatom 507 225 5 0 0 0 - - -;
#X msg 567 -55 44100;
#X msg 566 6 0;
#X obj 507 -26 loadbang;
#X obj 893 445 snapshot~;
#X floatatom 893 492 5 0 0 0 - - -;
#X obj 976 534 tgl 15 0 empty empty empty 17 7 0 10 -262144 -1 -1 0
1;
#X obj 985 582 metro 10;
#X floatatom 1014 247 5 0 0 0 - - -;
#X obj 660 -45 s chunk-size_3;
#X obj 604 -6 s chunk-size-samples_3;
#X obj 609 107 s~ read-pt_3;
#X obj 672 217 r~ phase_3;
#X obj 606 241 r~ phase_3;
#X obj 584 192 r chunk-size-samples_3;
#X obj 641 269 r~ read-pt_3;
#X obj 660 292 r~ phase_3;
#X obj 749 278 r~ phase_3;
#X obj 940 15 r chunk-size_3;
#X obj 929 114 s~ phase_3;
#X obj 1017 158 s~ phase2_3;
#X obj 838 203 r chunk-size-samples_3;
#X obj 927 229 r~ phase2_3;
#X obj 903 303 r~ phase2_3;
#X obj 894 280 r~ read-pt_3;
#X obj 1003 289 r~ phase2_3;
#X obj 860 252 r~ phase2_3;
#X connect 0 0 1 1;
#X connect 1 0 6 0;
#X connect 3 0 30 0;
#X connect 4 0 32 0;
#X connect 5 0 4 0;
#X connect 6 0 5 0;
#X connect 6 0 25 0;
#X connect 10 0 14 0;
#X connect 11 0 15 0;
#X connect 11 0 31 0;
#X connect 12 0 7 0;
#X connect 13 0 10 0;
#X connect 13 0 18 0;
#X connect 14 0 11 0;
#X connect 16 0 15 0;
#X connect 18 0 38 0;
#X connect 19 0 52 0;
#X connect 19 0 92 0;
#X connect 19 0 20 0;
#X connect 20 0 24 0;
#X connect 20 0 34 0;
#X connect 21 0 19 0;
#X connect 22 0 12 1;
#X connect 26 0 1 0;
#X connect 26 0 37 0;
#X connect 27 0 36 0;
#X connect 27 0 47 1;
#X connect 27 0 104 0;
#X connect 27 0 105 0;
#X connect 28 0 34 1;
#X connect 28 0 35 0;
#X connect 29 0 33 0;
#X connect 29 0 21 0;
#X connect 31 0 12 0;
#X connect 32 0 3 1;
#X connect 32 0 90 0;
#X connect 34 0 13 0;
#X connect 34 0 54 0;
#X connect 38 0 22 0;
#X connect 40 0 106 0;
#X connect 41 0 40 0;
#X connect 41 0 89 0;
#X connect 46 0 41 0;
#X connect 47 0 86 0;
#X connect 48 0 52 0;
#X connect 49 0 50 0;
#X connect 49 1 50 1;
#X connect 50 0 93 0;
#X connect 51 0 48 0;
#X connect 52 0 50 0;
#X connect 52 0 88 0;
#X connect 54 0 55 0;
#X connect 54 0 99 0;
#X connect 54 0 114 0;
#X connect 55 0 56 0;
#X connect 56 0 115 0;
#X connect 62 0 3 0;
#X connect 63 0 65 0;
#X connect 64 0 81 0;
#X connect 65 0 84 0;
#X connect 66 0 65 1;
#X connect 67 0 68 0;
#X connect 68 0 63 0;
#X connect 69 0 70 0;
#X connect 70 0 71 0;
#X connect 71 0 64 1;
#X connect 72 0 74 0;
#X connect 73 0 81 1;
#X connect 74 0 85 0;
#X connect 75 0 74 1;
#X connect 76 0 77 0;
#X connect 77 0 72 0;
#X connect 78 0 79 0;
#X connect 79 0 80 0;
#X connect 80 0 73 1;
#X connect 81 0 62 0;
#X connect 84 0 64 0;
#X connect 85 0 73 0;
#X connect 90 0 91 0;
#X connect 96 0 105 0;
#X connect 97 0 46 0;
#X connect 98 0 97 0;
#X connect 99 0 100 0;
#X connect 101 0 102 0;
#X connect 102 0 99 0;
#X connect 107 0 67 1;
#X connect 108 0 68 1;
#X connect 109 0 67 0;
#X connect 109 0 95 0;
#X connect 110 0 66 0;
#X connect 111 0 66 1;
#X connect 112 0 69 0;
#X connect 113 0 49 0;
#X connect 113 0 94 0;
#X connect 116 0 76 0;
#X connect 116 0 103 0;
#X connect 117 0 76 1;
#X connect 118 0 75 1;
#X connect 119 0 75 0;
#X connect 120 0 78 0;
#X connect 121 0 77 1;
#X restore 487 563 pd smoothloop_new_2;
#X obj 523 528 r phasorf;
#X obj 597 531 r recordl;
#X obj 671 606 output~;
#N canvas 1360 45 1223 667 smoothloop_new_2 0;
#X floatatom 93 13 5 0 0 0 - - -;
#X obj 53 10 int;
#X text 363 164 loudness (length of intersection);
#X obj 625 486 *~;
#X obj 22 120 line~;
#X msg 31 87 \$1 100;
#X obj 42 35 / 127;
#X obj 169 226 hip~ 5;
#X text 209 26 <-- frequency (Hz.);
#X text 295 63 <-- chunk size (100ths of a second);
#X obj 169 116 -~ 0.5;
#X obj 169 166 cos~;
#X obj 169 199 *~;
#X obj 169 86 phasor~;
#X obj 169 141 *~ 0.5;
#X obj 291 224 tabwrite~ cos-output;
#X obj 291 200 bng 15 250 50 0 empty empty empty 0 -6 0 8 -262144 -1
-1;
#X text 312 197 <-- click to graph envelope;
#X obj 234 115 *~ 44100;
#X obj 167 -36 mtof;
#X obj 167 -9 / 261.62;
#X obj 167 -63 int;
#X obj 234 166 tabread4~ table18;
#X text 285 -23 ENVELOPING YOUR LOOPING SAMPLER;
#X floatatom 252 65 5 0 0 0 - - -;
#X floatatom 90 72 5 0 0 0 - - -;
#X obj 43 -89 inlet;
#X obj 380 -89 inlet;
#X obj 103 -89 inlet;
#X obj 164 -93 inlet;
#X obj 626 538 outlet~;
#N canvas 1737 174 637 687 envnrafe 0;
#X obj 20 -304 inlet~;
#X obj 19 -186 +~;
#X obj 20 -261 delwrite~ coswave 500;
#X obj 19 -224 delread~ coswave 1000;
#X obj 20 -154 outlet~;
#X connect 0 0 2 0;
#X connect 0 0 1 1;
#X connect 1 0 4 0;
#X connect 3 0 1 0;
#X restore 70 159 pd envnrafe;
#X obj 66 221 clip~ 0 1;
#X floatatom 296 -47 5 0 0 0 - - -;
#X obj 172 41 *;
#X floatatom 108 -41 5 0 0 0 - - -;
#X floatatom 379 -61 10 0 0 0 - - -;
#X floatatom 11 -25 5 0 0 0 - - -;
#X obj 234 140 +~ 1;
#X text 652 -92 <-- chunk size (100ths of a second);
#X obj 609 84 line~;
#X obj 609 59 pack 0 100;
#X text 643 10 <-- read point in 100ths of a second;
#X text 772 -69 chunk size;
#X text 772 -47 in seconds;
#X text 794 -15 ... and in samples;
#X obj 609 34 * 44100;
#X obj 601 -77 * 44100;
#X floatatom 929 -40 0 0 0 0 - - -;
#X obj 940 40 t b f;
#X obj 929 60 /;
#X obj 929 -63 loadbang;
#X obj 929 -15 expr pow(2 \, $f1/120);
#X text 1118 -15 speed change;
#X obj 929 88 phasor~;
#X obj 1016 107 +~ 0.5;
#X obj 1017 133 wrap~;
#X text 964 -40 <-- transposition \, halftones/10;
#X text 967 63 loop frequency;
#X text 1077 94 second phase signal;
#X text 1077 114 out of phase from;
#X text 1076 135 first one;
#X obj 583 420 hip~ 5;
#X obj 584 289 +~ 1;
#X obj 584 367 *~;
#X obj 584 318 +~;
#X obj 640 317 samphold~;
#X obj 584 217 samphold~;
#X obj 584 264 *~;
#X obj 749 302 -~ 0.5;
#X obj 749 326 *~ 0.5;
#X obj 749 349 cos~;
#X obj 838 300 +~ 1;
#X obj 838 378 *~;
#X obj 838 329 +~;
#X obj 893 328 samphold~;
#X obj 838 228 samphold~;
#X obj 838 275 *~;
#X obj 1003 313 -~ 0.5;
#X obj 1003 337 *~ 0.5;
#X obj 1003 360 cos~;
#X obj 583 396 +~;
#X text 634 174 copy 1;
#X text 891 183 copy 2;
#X obj 584 343 tabread4~ table18;
#X obj 838 354 tabread4~ table18;
#X floatatom 738 62 5 0 0 0 - - -;
#X floatatom 717 118 5 0 0 0 - - -;
#X floatatom 872 44 5 0 0 0 - - -;
#X floatatom 552 122 5 0 0 0 - - -;
#X obj 160 362 snapshot~;
#X floatatom 160 409 5 0 0 0 - - -;
#X floatatom 248 8 5 0 0 0 - - -;
#X floatatom 864 94 5 0 0 0 - - -;
#X floatatom 1061 40 5 0 0 0 - - -;
#X floatatom 507 225 5 0 0 0 - - -;
#X msg 567 -55 44100;
#X msg 566 6 0;
#X obj 507 -26 loadbang;
#X obj 893 445 snapshot~;
#X floatatom 893 492 5 0 0 0 - - -;
#X obj 976 534 tgl 15 0 empty empty empty 17 7 0 10 -262144 -1 -1 0
1;
#X obj 985 582 metro 10;
#X floatatom 1014 247 5 0 0 0 - - -;
#X obj 660 -45 s chunk-size_4;
#X obj 604 -6 s chunk-size-samples_4;
#X obj 609 107 s~ read-pt_4;
#X obj 584 192 r chunk-size-samples_4;
#X obj 672 217 r~ phase_4;
#X obj 606 241 r~ phase_4;
#X obj 641 269 r~ read-pt_4;
#X obj 749 278 r~ phase_4;
#X obj 660 292 r~ phase_4;
#X obj 940 15 r chunk-size_4;
#X obj 929 114 s~ phase_4;
#X obj 1017 158 s~ phase2_4;
#X obj 860 252 r~ phase2_4;
#X obj 894 280 r~ read-pt_4;
#X obj 1003 289 r~ phase2_4;
#X obj 903 303 r~ phase2_4;
#X obj 838 203 r chunk-size-samples_4;
#X obj 927 229 r~ phase2_4;
#X connect 0 0 1 1;
#X connect 1 0 6 0;
#X connect 3 0 30 0;
#X connect 4 0 32 0;
#X connect 5 0 4 0;
#X connect 6 0 5 0;
#X connect 6 0 25 0;
#X connect 10 0 14 0;
#X connect 11 0 15 0;
#X connect 11 0 31 0;
#X connect 12 0 7 0;
#X connect 13 0 10 0;
#X connect 13 0 18 0;
#X connect 14 0 11 0;
#X connect 16 0 15 0;
#X connect 18 0 38 0;
#X connect 19 0 52 0;
#X connect 19 0 92 0;
#X connect 19 0 20 0;
#X connect 20 0 24 0;
#X connect 20 0 34 0;
#X connect 21 0 19 0;
#X connect 22 0 12 1;
#X connect 26 0 1 0;
#X connect 26 0 37 0;
#X connect 27 0 36 0;
#X connect 27 0 47 1;
#X connect 27 0 104 0;
#X connect 27 0 105 0;
#X connect 28 0 34 1;
#X connect 28 0 35 0;
#X connect 29 0 33 0;
#X connect 29 0 21 0;
#X connect 31 0 12 0;
#X connect 32 0 3 1;
#X connect 32 0 90 0;
#X connect 34 0 13 0;
#X connect 34 0 54 0;
#X connect 38 0 22 0;
#X connect 40 0 106 0;
#X connect 41 0 40 0;
#X connect 41 0 89 0;
#X connect 46 0 41 0;
#X connect 47 0 86 0;
#X connect 48 0 52 0;
#X connect 49 0 50 0;
#X connect 49 1 50 1;
#X connect 50 0 93 0;
#X connect 51 0 48 0;
#X connect 52 0 50 0;
#X connect 52 0 88 0;
#X connect 54 0 55 0;
#X connect 54 0 99 0;
#X connect 54 0 114 0;
#X connect 55 0 56 0;
#X connect 56 0 115 0;
#X connect 62 0 3 0;
#X connect 63 0 65 0;
#X connect 64 0 81 0;
#X connect 65 0 84 0;
#X connect 66 0 65 1;
#X connect 67 0 68 0;
#X connect 68 0 63 0;
#X connect 69 0 70 0;
#X connect 70 0 71 0;
#X connect 71 0 64 1;
#X connect 72 0 74 0;
#X connect 73 0 81 1;
#X connect 74 0 85 0;
#X connect 75 0 74 1;
#X connect 76 0 77 0;
#X connect 77 0 72 0;
#X connect 78 0 79 0;
#X connect 79 0 80 0;
#X connect 80 0 73 1;
#X connect 81 0 62 0;
#X connect 84 0 64 0;
#X connect 85 0 73 0;
#X connect 90 0 91 0;
#X connect 96 0 105 0;
#X connect 97 0 46 0;
#X connect 98 0 97 0;
#X connect 99 0 100 0;
#X connect 101 0 102 0;
#X connect 102 0 99 0;
#X connect 107 0 67 0;
#X connect 107 0 95 0;
#X connect 108 0 67 1;
#X connect 109 0 68 1;
#X connect 110 0 66 0;
#X connect 111 0 69 0;
#X connect 112 0 66 1;
#X connect 113 0 49 0;
#X connect 113 0 94 0;
#X connect 116 0 77 1;
#X connect 117 0 75 0;
#X connect 118 0 78 0;
#X connect 119 0 75 1;
#X connect 120 0 76 0;
#X connect 120 0 103 0;
#X connect 121 0 76 1;
#X restore 672 563 pd smoothloop_new_2;
#X obj 708 528 r phasorf;
#X obj 782 531 r recordl;
#X obj 847 606 output~;
#N canvas 1360 45 1223 667 smoothloop_new_2 0;
#X floatatom 93 13 5 0 0 0 - - -;
#X obj 53 10 int;
#X text 363 164 loudness (length of intersection);
#X obj 625 486 *~;
#X obj 22 120 line~;
#X msg 31 87 \$1 100;
#X obj 42 35 / 127;
#X obj 169 226 hip~ 5;
#X text 209 26 <-- frequency (Hz.);
#X text 295 63 <-- chunk size (100ths of a second);
#X obj 169 116 -~ 0.5;
#X obj 169 166 cos~;
#X obj 169 199 *~;
#X obj 169 86 phasor~;
#X obj 169 141 *~ 0.5;
#X obj 291 224 tabwrite~ cos-output;
#X obj 291 200 bng 15 250 50 0 empty empty empty 0 -6 0 8 -262144 -1
-1;
#X text 312 197 <-- click to graph envelope;
#X obj 234 115 *~ 44100;
#X obj 167 -36 mtof;
#X obj 167 -9 / 261.62;
#X obj 167 -63 int;
#X obj 234 166 tabread4~ table18;
#X text 285 -23 ENVELOPING YOUR LOOPING SAMPLER;
#X floatatom 252 65 5 0 0 0 - - -;
#X floatatom 90 72 5 0 0 0 - - -;
#X obj 43 -89 inlet;
#X obj 380 -89 inlet;
#X obj 103 -89 inlet;
#X obj 164 -93 inlet;
#X obj 626 538 outlet~;
#N canvas 1737 174 637 687 envnrafe 0;
#X obj 20 -304 inlet~;
#X obj 19 -186 +~;
#X obj 20 -261 delwrite~ coswave 500;
#X obj 19 -224 delread~ coswave 1000;
#X obj 20 -154 outlet~;
#X connect 0 0 2 0;
#X connect 0 0 1 1;
#X connect 1 0 4 0;
#X connect 3 0 1 0;
#X restore 70 159 pd envnrafe;
#X obj 66 221 clip~ 0 1;
#X floatatom 296 -47 5 0 0 0 - - -;
#X obj 172 41 *;
#X floatatom 108 -41 5 0 0 0 - - -;
#X floatatom 379 -61 10 0 0 0 - - -;
#X floatatom 11 -25 5 0 0 0 - - -;
#X obj 234 140 +~ 1;
#X text 652 -92 <-- chunk size (100ths of a second);
#X obj 609 84 line~;
#X obj 609 59 pack 0 100;
#X text 643 10 <-- read point in 100ths of a second;
#X text 772 -69 chunk size;
#X text 772 -47 in seconds;
#X text 794 -15 ... and in samples;
#X obj 609 34 * 44100;
#X obj 601 -77 * 44100;
#X floatatom 929 -40 0 0 0 0 - - -;
#X obj 940 40 t b f;
#X obj 929 60 /;
#X obj 929 -63 loadbang;
#X obj 929 -15 expr pow(2 \, $f1/120);
#X text 1118 -15 speed change;
#X obj 929 88 phasor~;
#X obj 1016 107 +~ 0.5;
#X obj 1017 133 wrap~;
#X text 964 -40 <-- transposition \, halftones/10;
#X text 967 63 loop frequency;
#X text 1077 94 second phase signal;
#X text 1077 114 out of phase from;
#X text 1076 135 first one;
#X obj 583 420 hip~ 5;
#X obj 584 289 +~ 1;
#X obj 584 367 *~;
#X obj 584 318 +~;
#X obj 640 317 samphold~;
#X obj 584 217 samphold~;
#X obj 584 264 *~;
#X obj 749 302 -~ 0.5;
#X obj 749 326 *~ 0.5;
#X obj 749 349 cos~;
#X obj 838 300 +~ 1;
#X obj 838 378 *~;
#X obj 838 329 +~;
#X obj 893 328 samphold~;
#X obj 838 228 samphold~;
#X obj 838 275 *~;
#X obj 1003 313 -~ 0.5;
#X obj 1003 337 *~ 0.5;
#X obj 1003 360 cos~;
#X obj 583 396 +~;
#X text 634 174 copy 1;
#X text 891 183 copy 2;
#X obj 584 343 tabread4~ table18;
#X obj 838 354 tabread4~ table18;
#X floatatom 738 62 5 0 0 0 - - -;
#X floatatom 717 118 5 0 0 0 - - -;
#X floatatom 872 44 5 0 0 0 - - -;
#X floatatom 552 122 5 0 0 0 - - -;
#X obj 160 362 snapshot~;
#X floatatom 160 409 5 0 0 0 - - -;
#X floatatom 248 8 5 0 0 0 - - -;
#X floatatom 864 94 5 0 0 0 - - -;
#X floatatom 1061 40 5 0 0 0 - - -;
#X floatatom 507 225 5 0 0 0 - - -;
#X msg 567 -55 44100;
#X msg 566 6 0;
#X obj 507 -26 loadbang;
#X obj 893 445 snapshot~;
#X floatatom 893 492 5 0 0 0 - - -;
#X obj 976 534 tgl 15 0 empty empty empty 17 7 0 10 -262144 -1 -1 0
1;
#X obj 985 582 metro 10;
#X floatatom 1014 247 5 0 0 0 - - -;
#X obj 660 -45 s chunk-size_5;
#X obj 604 -6 s chunk-size-samples_5;
#X obj 609 107 s~ read-pt_5;
#X obj 584 192 r chunk-size-samples_5;
#X obj 672 217 r~ phase_5;
#X obj 606 241 r~ phase_5;
#X obj 641 269 r~ read-pt_5;
#X obj 749 278 r~ phase_5;
#X obj 660 292 r~ phase_5;
#X obj 940 15 r chunk-size_5;
#X obj 929 114 s~ phase_5;
#X obj 1017 158 s~ phase2_5;
#X obj 1003 289 r~ phase2_5;
#X obj 894 280 r~ read-pt_5;
#X obj 903 303 r~ phase2_5;
#X obj 860 252 r~ phase2_5;
#X obj 838 203 r chunk-size-samples_5;
#X obj 927 229 r~ phase2_5;
#X connect 0 0 1 1;
#X connect 1 0 6 0;
#X connect 3 0 30 0;
#X connect 4 0 32 0;
#X connect 5 0 4 0;
#X connect 6 0 5 0;
#X connect 6 0 25 0;
#X connect 10 0 14 0;
#X connect 11 0 15 0;
#X connect 11 0 31 0;
#X connect 12 0 7 0;
#X connect 13 0 10 0;
#X connect 13 0 18 0;
#X connect 14 0 11 0;
#X connect 16 0 15 0;
#X connect 18 0 38 0;
#X connect 19 0 52 0;
#X connect 19 0 92 0;
#X connect 19 0 20 0;
#X connect 20 0 24 0;
#X connect 20 0 34 0;
#X connect 21 0 19 0;
#X connect 22 0 12 1;
#X connect 26 0 1 0;
#X connect 26 0 37 0;
#X connect 27 0 36 0;
#X connect 27 0 47 1;
#X connect 27 0 104 0;
#X connect 27 0 105 0;
#X connect 28 0 34 1;
#X connect 28 0 35 0;
#X connect 29 0 33 0;
#X connect 29 0 21 0;
#X connect 31 0 12 0;
#X connect 32 0 3 1;
#X connect 32 0 90 0;
#X connect 34 0 13 0;
#X connect 34 0 54 0;
#X connect 38 0 22 0;
#X connect 40 0 106 0;
#X connect 41 0 40 0;
#X connect 41 0 89 0;
#X connect 46 0 41 0;
#X connect 47 0 86 0;
#X connect 48 0 52 0;
#X connect 49 0 50 0;
#X connect 49 1 50 1;
#X connect 50 0 93 0;
#X connect 51 0 48 0;
#X connect 52 0 50 0;
#X connect 52 0 88 0;
#X connect 54 0 55 0;
#X connect 54 0 99 0;
#X connect 54 0 114 0;
#X connect 55 0 56 0;
#X connect 56 0 115 0;
#X connect 62 0 3 0;
#X connect 63 0 65 0;
#X connect 64 0 81 0;
#X connect 65 0 84 0;
#X connect 66 0 65 1;
#X connect 67 0 68 0;
#X connect 68 0 63 0;
#X connect 69 0 70 0;
#X connect 70 0 71 0;
#X connect 71 0 64 1;
#X connect 72 0 74 0;
#X connect 73 0 81 1;
#X connect 74 0 85 0;
#X connect 75 0 74 1;
#X connect 76 0 77 0;
#X connect 77 0 72 0;
#X connect 78 0 79 0;
#X connect 79 0 80 0;
#X connect 80 0 73 1;
#X connect 81 0 62 0;
#X connect 84 0 64 0;
#X connect 85 0 73 0;
#X connect 90 0 91 0;
#X connect 96 0 105 0;
#X connect 97 0 46 0;
#X connect 98 0 97 0;
#X connect 99 0 100 0;
#X connect 101 0 102 0;
#X connect 102 0 99 0;
#X connect 107 0 67 0;
#X connect 107 0 95 0;
#X connect 108 0 67 1;
#X connect 109 0 68 1;
#X connect 110 0 66 0;
#X connect 111 0 69 0;
#X connect 112 0 66 1;
#X connect 113 0 49 0;
#X connect 113 0 94 0;
#X connect 116 0 78 0;
#X connect 117 0 75 0;
#X connect 118 0 75 1;
#X connect 119 0 77 1;
#X connect 120 0 76 0;
#X connect 120 0 103 0;
#X connect 121 0 76 1;
#X restore 848 563 pd smoothloop_new_2;
#X obj 884 528 r phasorf;
#X obj 958 531 r recordl;
#X obj 1009 611 output~;
#N canvas 1360 45 1223 667 smoothloop_new_2 0;
#X floatatom 93 13 5 0 0 0 - - -;
#X obj 53 10 int;
#X text 363 164 loudness (length of intersection);
#X obj 625 486 *~;
#X obj 22 120 line~;
#X msg 31 87 \$1 100;
#X obj 42 35 / 127;
#X obj 169 226 hip~ 5;
#X text 209 26 <-- frequency (Hz.);
#X text 295 63 <-- chunk size (100ths of a second);
#X obj 169 116 -~ 0.5;
#X obj 169 166 cos~;
#X obj 169 199 *~;
#X obj 169 86 phasor~;
#X obj 169 141 *~ 0.5;
#X obj 291 224 tabwrite~ cos-output;
#X obj 291 200 bng 15 250 50 0 empty empty empty 0 -6 0 8 -262144 -1
-1;
#X text 312 197 <-- click to graph envelope;
#X obj 234 115 *~ 44100;
#X obj 167 -36 mtof;
#X obj 167 -9 / 261.62;
#X obj 167 -63 int;
#X obj 234 166 tabread4~ table18;
#X text 285 -23 ENVELOPING YOUR LOOPING SAMPLER;
#X floatatom 252 65 5 0 0 0 - - -;
#X floatatom 90 72 5 0 0 0 - - -;
#X obj 43 -89 inlet;
#X obj 380 -89 inlet;
#X obj 103 -89 inlet;
#X obj 164 -93 inlet;
#X obj 626 538 outlet~;
#N canvas 1737 174 637 687 envnrafe 0;
#X obj 20 -304 inlet~;
#X obj 19 -186 +~;
#X obj 20 -261 delwrite~ coswave 500;
#X obj 19 -224 delread~ coswave 1000;
#X obj 20 -154 outlet~;
#X connect 0 0 2 0;
#X connect 0 0 1 1;
#X connect 1 0 4 0;
#X connect 3 0 1 0;
#X restore 70 159 pd envnrafe;
#X obj 66 221 clip~ 0 1;
#X floatatom 296 -47 5 0 0 0 - - -;
#X obj 172 41 *;
#X floatatom 108 -41 5 0 0 0 - - -;
#X floatatom 379 -61 10 0 0 0 - - -;
#X floatatom 11 -25 5 0 0 0 - - -;
#X obj 234 140 +~ 1;
#X text 652 -92 <-- chunk size (100ths of a second);
#X obj 609 84 line~;
#X obj 609 59 pack 0 100;
#X text 643 10 <-- read point in 100ths of a second;
#X text 772 -69 chunk size;
#X text 772 -47 in seconds;
#X text 794 -15 ... and in samples;
#X obj 609 34 * 44100;
#X obj 601 -77 * 44100;
#X floatatom 929 -40 0 0 0 0 - - -;
#X obj 940 40 t b f;
#X obj 929 60 /;
#X obj 929 -63 loadbang;
#X obj 929 -15 expr pow(2 \, $f1/120);
#X text 1118 -15 speed change;
#X obj 929 88 phasor~;
#X obj 1016 107 +~ 0.5;
#X obj 1017 133 wrap~;
#X text 964 -40 <-- transposition \, halftones/10;
#X text 967 63 loop frequency;
#X text 1077 94 second phase signal;
#X text 1077 114 out of phase from;
#X text 1076 135 first one;
#X obj 583 420 hip~ 5;
#X obj 584 289 +~ 1;
#X obj 584 367 *~;
#X obj 584 318 +~;
#X obj 640 317 samphold~;
#X obj 584 217 samphold~;
#X obj 584 264 *~;
#X obj 749 302 -~ 0.5;
#X obj 749 326 *~ 0.5;
#X obj 749 349 cos~;
#X obj 838 300 +~ 1;
#X obj 838 378 *~;
#X obj 838 329 +~;
#X obj 893 328 samphold~;
#X obj 838 228 samphold~;
#X obj 838 275 *~;
#X obj 1003 313 -~ 0.5;
#X obj 1003 337 *~ 0.5;
#X obj 1003 360 cos~;
#X obj 583 396 +~;
#X text 634 174 copy 1;
#X text 891 183 copy 2;
#X obj 584 343 tabread4~ table18;
#X obj 838 354 tabread4~ table18;
#X floatatom 738 62 5 0 0 0 - - -;
#X floatatom 717 118 5 0 0 0 - - -;
#X floatatom 872 44 5 0 0 0 - - -;
#X floatatom 552 122 5 0 0 0 - - -;
#X obj 160 362 snapshot~;
#X floatatom 160 409 5 0 0 0 - - -;
#X floatatom 248 8 5 0 0 0 - - -;
#X floatatom 864 94 5 0 0 0 - - -;
#X floatatom 1061 40 5 0 0 0 - - -;
#X floatatom 507 225 5 0 0 0 - - -;
#X msg 567 -55 44100;
#X msg 566 6 0;
#X obj 507 -26 loadbang;
#X obj 893 445 snapshot~;
#X floatatom 893 492 5 0 0 0 - - -;
#X obj 976 534 tgl 15 0 empty empty empty 17 7 0 10 -262144 -1 -1 0
1;
#X obj 985 582 metro 10;
#X floatatom 1014 247 5 0 0 0 - - -;
#X obj 660 -45 s chunk-size_6;
#X obj 604 -6 s chunk-size-samples_6;
#X obj 609 107 s~ read-pt_6;
#X obj 940 15 r chunk-size_6;
#X obj 929 114 s~ phase_6;
#X obj 1017 158 s~ phase2_6;
#X obj 927 229 r~ phase2_6;
#X obj 1003 289 r~ phase2_6;
#X obj 903 303 r~ phase2_6;
#X obj 894 280 r~ read-pt_6;
#X obj 860 252 r~ phase2_6;
#X obj 660 292 r~ phase_6;
#X obj 749 278 r~ phase_6;
#X obj 641 269 r~ read-pt_6;
#X obj 606 241 r~ phase_6;
#X obj 672 217 r~ phase_6;
#X obj 584 192 r chunk-size-samples_6;
#X obj 838 203 r chunk-size-samples_6;
#X connect 0 0 1 1;
#X connect 1 0 6 0;
#X connect 3 0 30 0;
#X connect 4 0 32 0;
#X connect 5 0 4 0;
#X connect 6 0 5 0;
#X connect 6 0 25 0;
#X connect 10 0 14 0;
#X connect 11 0 15 0;
#X connect 11 0 31 0;
#X connect 12 0 7 0;
#X connect 13 0 10 0;
#X connect 13 0 18 0;
#X connect 14 0 11 0;
#X connect 16 0 15 0;
#X connect 18 0 38 0;
#X connect 19 0 52 0;
#X connect 19 0 92 0;
#X connect 19 0 20 0;
#X connect 20 0 24 0;
#X connect 20 0 34 0;
#X connect 21 0 19 0;
#X connect 22 0 12 1;
#X connect 26 0 1 0;
#X connect 26 0 37 0;
#X connect 27 0 36 0;
#X connect 27 0 47 1;
#X connect 27 0 104 0;
#X connect 27 0 105 0;
#X connect 28 0 34 1;
#X connect 28 0 35 0;
#X connect 29 0 33 0;
#X connect 29 0 21 0;
#X connect 31 0 12 0;
#X connect 32 0 3 1;
#X connect 32 0 90 0;
#X connect 34 0 13 0;
#X connect 34 0 54 0;
#X connect 38 0 22 0;
#X connect 40 0 106 0;
#X connect 41 0 40 0;
#X connect 41 0 89 0;
#X connect 46 0 41 0;
#X connect 47 0 86 0;
#X connect 48 0 52 0;
#X connect 49 0 50 0;
#X connect 49 1 50 1;
#X connect 50 0 93 0;
#X connect 51 0 48 0;
#X connect 52 0 50 0;
#X connect 52 0 88 0;
#X connect 54 0 55 0;
#X connect 54 0 99 0;
#X connect 54 0 108 0;
#X connect 55 0 56 0;
#X connect 56 0 109 0;
#X connect 62 0 3 0;
#X connect 63 0 65 0;
#X connect 64 0 81 0;
#X connect 65 0 84 0;
#X connect 66 0 65 1;
#X connect 67 0 68 0;
#X connect 68 0 63 0;
#X connect 69 0 70 0;
#X connect 70 0 71 0;
#X connect 71 0 64 1;
#X connect 72 0 74 0;
#X connect 73 0 81 1;
#X connect 74 0 85 0;
#X connect 75 0 74 1;
#X connect 76 0 77 0;
#X connect 77 0 72 0;
#X connect 78 0 79 0;
#X connect 79 0 80 0;
#X connect 80 0 73 1;
#X connect 81 0 62 0;
#X connect 84 0 64 0;
#X connect 85 0 73 0;
#X connect 90 0 91 0;
#X connect 96 0 105 0;
#X connect 97 0 46 0;
#X connect 98 0 97 0;
#X connect 99 0 100 0;
#X connect 101 0 102 0;
#X connect 102 0 99 0;
#X connect 107 0 49 0;
#X connect 107 0 94 0;
#X connect 110 0 76 1;
#X connect 111 0 78 0;
#X connect 112 0 75 1;
#X connect 113 0 75 0;
#X connect 114 0 77 1;
#X connect 115 0 66 1;
#X connect 116 0 69 0;
#X connect 117 0 66 0;
#X connect 118 0 68 1;
#X connect 119 0 67 1;
#X connect 120 0 67 0;
#X connect 120 0 95 0;
#X connect 121 0 76 0;
#X connect 121 0 103 0;
#X restore 1010 568 pd smoothloop_new_2;
#X obj 1046 533 r phasorf;
#X obj 1120 536 r recordl;
#X obj 1155 612 output~;
#N canvas 1360 45 1223 667 smoothloop_new_2 0;
#X floatatom 93 13 5 0 0 0 - - -;
#X obj 53 10 int;
#X text 363 164 loudness (length of intersection);
#X obj 625 486 *~;
#X obj 22 120 line~;
#X msg 31 87 \$1 100;
#X obj 42 35 / 127;
#X obj 169 226 hip~ 5;
#X text 209 26 <-- frequency (Hz.);
#X text 295 63 <-- chunk size (100ths of a second);
#X obj 169 116 -~ 0.5;
#X obj 169 166 cos~;
#X obj 169 199 *~;
#X obj 169 86 phasor~;
#X obj 169 141 *~ 0.5;
#X obj 291 224 tabwrite~ cos-output;
#X obj 291 200 bng 15 250 50 0 empty empty empty 0 -6 0 8 -262144 -1
-1;
#X text 312 197 <-- click to graph envelope;
#X obj 234 115 *~ 44100;
#X obj 167 -36 mtof;
#X obj 167 -9 / 261.62;
#X obj 167 -63 int;
#X obj 234 166 tabread4~ table18;
#X text 285 -23 ENVELOPING YOUR LOOPING SAMPLER;
#X floatatom 252 65 5 0 0 0 - - -;
#X floatatom 90 72 5 0 0 0 - - -;
#X obj 43 -89 inlet;
#X obj 380 -89 inlet;
#X obj 103 -89 inlet;
#X obj 164 -93 inlet;
#X obj 626 538 outlet~;
#N canvas 1737 174 637 687 envnrafe 0;
#X obj 20 -304 inlet~;
#X obj 19 -186 +~;
#X obj 20 -261 delwrite~ coswave 500;
#X obj 19 -224 delread~ coswave 1000;
#X obj 20 -154 outlet~;
#X connect 0 0 2 0;
#X connect 0 0 1 1;
#X connect 1 0 4 0;
#X connect 3 0 1 0;
#X restore 70 159 pd envnrafe;
#X obj 66 221 clip~ 0 1;
#X floatatom 296 -47 5 0 0 0 - - -;
#X obj 172 41 *;
#X floatatom 108 -41 5 0 0 0 - - -;
#X floatatom 379 -61 10 0 0 0 - - -;
#X floatatom 11 -25 5 0 0 0 - - -;
#X obj 234 140 +~ 1;
#X text 652 -92 <-- chunk size (100ths of a second);
#X obj 609 84 line~;
#X obj 609 59 pack 0 100;
#X text 643 10 <-- read point in 100ths of a second;
#X text 772 -69 chunk size;
#X text 772 -47 in seconds;
#X text 794 -15 ... and in samples;
#X obj 609 34 * 44100;
#X obj 601 -77 * 44100;
#X floatatom 929 -40 0 0 0 0 - - -;
#X obj 940 40 t b f;
#X obj 929 60 /;
#X obj 929 -63 loadbang;
#X obj 929 -15 expr pow(2 \, $f1/120);
#X text 1118 -15 speed change;
#X obj 929 88 phasor~;
#X obj 1016 107 +~ 0.5;
#X obj 1017 133 wrap~;
#X text 964 -40 <-- transposition \, halftones/10;
#X text 967 63 loop frequency;
#X text 1077 94 second phase signal;
#X text 1077 114 out of phase from;
#X text 1076 135 first one;
#X obj 583 420 hip~ 5;
#X obj 584 289 +~ 1;
#X obj 584 367 *~;
#X obj 584 318 +~;
#X obj 640 317 samphold~;
#X obj 584 217 samphold~;
#X obj 584 264 *~;
#X obj 749 302 -~ 0.5;
#X obj 749 326 *~ 0.5;
#X obj 749 349 cos~;
#X obj 838 300 +~ 1;
#X obj 838 378 *~;
#X obj 838 329 +~;
#X obj 893 328 samphold~;
#X obj 838 228 samphold~;
#X obj 838 275 *~;
#X obj 1003 313 -~ 0.5;
#X obj 1003 337 *~ 0.5;
#X obj 1003 360 cos~;
#X obj 583 396 +~;
#X text 634 174 copy 1;
#X text 891 183 copy 2;
#X obj 584 343 tabread4~ table18;
#X obj 838 354 tabread4~ table18;
#X floatatom 738 62 5 0 0 0 - - -;
#X floatatom 717 118 5 0 0 0 - - -;
#X floatatom 872 44 5 0 0 0 - - -;
#X floatatom 552 122 5 0 0 0 - - -;
#X obj 160 362 snapshot~;
#X floatatom 160 409 5 0 0 0 - - -;
#X floatatom 248 8 5 0 0 0 - - -;
#X floatatom 864 94 5 0 0 0 - - -;
#X floatatom 1061 40 5 0 0 0 - - -;
#X floatatom 507 225 5 0 0 0 - - -;
#X msg 567 -55 44100;
#X msg 566 6 0;
#X obj 507 -26 loadbang;
#X obj 893 445 snapshot~;
#X floatatom 893 492 5 0 0 0 - - -;
#X obj 976 534 tgl 15 0 empty empty empty 17 7 0 10 -262144 -1 -1 0
1;
#X obj 985 582 metro 10;
#X floatatom 1014 247 5 0 0 0 - - -;
#X obj 660 -45 s chunk-size_7;
#X obj 604 -6 s chunk-size-samples_7;
#X obj 609 107 s~ read-pt_7;
#X obj 940 15 r chunk-size_7;
#X obj 1017 158 s~ phase2_7;
#X obj 929 114 s~ phase_7;
#X obj 1003 289 r~ phase2_7;
#X obj 903 303 r~ phase2_7;
#X obj 894 280 r~ read-pt_7;
#X obj 927 229 r~ phase2_7;
#X obj 838 203 r chunk-size-samples_7;
#X obj 860 252 r~ phase2_7;
#X obj 660 292 r~ phase_7;
#X obj 641 269 r~ read-pt_7;
#X obj 672 217 r~ phase_7;
#X obj 584 192 r chunk-size-samples_7;
#X obj 606 241 r~ phase_7;
#X obj 749 278 r~ phase_7;
#X connect 0 0 1 1;
#X connect 1 0 6 0;
#X connect 3 0 30 0;
#X connect 4 0 32 0;
#X connect 5 0 4 0;
#X connect 6 0 5 0;
#X connect 6 0 25 0;
#X connect 10 0 14 0;
#X connect 11 0 15 0;
#X connect 11 0 31 0;
#X connect 12 0 7 0;
#X connect 13 0 10 0;
#X connect 13 0 18 0;
#X connect 14 0 11 0;
#X connect 16 0 15 0;
#X connect 18 0 38 0;
#X connect 19 0 52 0;
#X connect 19 0 92 0;
#X connect 19 0 20 0;
#X connect 20 0 24 0;
#X connect 20 0 34 0;
#X connect 21 0 19 0;
#X connect 22 0 12 1;
#X connect 26 0 1 0;
#X connect 26 0 37 0;
#X connect 27 0 36 0;
#X connect 27 0 47 1;
#X connect 27 0 104 0;
#X connect 27 0 105 0;
#X connect 28 0 34 1;
#X connect 28 0 35 0;
#X connect 29 0 33 0;
#X connect 29 0 21 0;
#X connect 31 0 12 0;
#X connect 32 0 3 1;
#X connect 32 0 90 0;
#X connect 34 0 13 0;
#X connect 34 0 54 0;
#X connect 38 0 22 0;
#X connect 40 0 106 0;
#X connect 41 0 40 0;
#X connect 41 0 89 0;
#X connect 46 0 41 0;
#X connect 47 0 86 0;
#X connect 48 0 52 0;
#X connect 49 0 50 0;
#X connect 49 1 50 1;
#X connect 50 0 93 0;
#X connect 51 0 48 0;
#X connect 52 0 50 0;
#X connect 52 0 88 0;
#X connect 54 0 55 0;
#X connect 54 0 99 0;
#X connect 54 0 109 0;
#X connect 55 0 56 0;
#X connect 56 0 108 0;
#X connect 62 0 3 0;
#X connect 63 0 65 0;
#X connect 64 0 81 0;
#X connect 65 0 84 0;
#X connect 66 0 65 1;
#X connect 67 0 68 0;
#X connect 68 0 63 0;
#X connect 69 0 70 0;
#X connect 70 0 71 0;
#X connect 71 0 64 1;
#X connect 72 0 74 0;
#X connect 73 0 81 1;
#X connect 74 0 85 0;
#X connect 75 0 74 1;
#X connect 76 0 77 0;
#X connect 77 0 72 0;
#X connect 78 0 79 0;
#X connect 79 0 80 0;
#X connect 80 0 73 1;
#X connect 81 0 62 0;
#X connect 84 0 64 0;
#X connect 85 0 73 0;
#X connect 90 0 91 0;
#X connect 96 0 105 0;
#X connect 97 0 46 0;
#X connect 98 0 97 0;
#X connect 99 0 100 0;
#X connect 101 0 102 0;
#X connect 102 0 99 0;
#X connect 107 0 49 0;
#X connect 107 0 94 0;
#X connect 110 0 78 0;
#X connect 111 0 75 1;
#X connect 112 0 75 0;
#X connect 113 0 76 1;
#X connect 114 0 76 0;
#X connect 114 0 103 0;
#X connect 115 0 77 1;
#X connect 116 0 66 1;
#X connect 117 0 66 0;
#X connect 118 0 67 1;
#X connect 119 0 67 0;
#X connect 119 0 95 0;
#X connect 120 0 68 1;
#X connect 121 0 69 0;
#X restore 1156 569 pd smoothloop_new_2;
#X obj 1192 534 r phasorf;
#X obj 1266 537 r recordl;
#X obj 491 37 OSCroute /intersection /stop /record /notification;
#X floatatom 900 63 5 0 0 0 - - -;
#X obj 900 120 dac~;
#N canvas 1486 268 1348 723 voiceprompts 0;
#X obj 241 151 change;
#X floatatom 355 182 5 0 0 0 - - -;
#X obj 355 208 sel 0 1 2 3;
#X obj 494 499 *~ 0.5;
#X obj 162 333 bng 15 250 50 0 empty empty empty 17 7 0 10 -262144
-1 -1;
#X obj 375 374 readsf~ 1;
#X msg 271 399 start;
#X msg 350 344 open Notification_1.wav;
#X obj 221 336 t b b;
#X obj 524 405 readsf~ 1;
#X msg 511 374 start;
#X obj 523 323 t b b;
#X msg 521 349 open Notification_2.wav;
#X obj 686 407 readsf~ 1;
#X msg 673 376 start;
#X obj 685 325 t b b;
#X msg 683 351 open Notification_3.wav;
#X obj 242 86 inlet;
#X obj 492 556 outlet~;
#X connect 0 0 1 0;
#X connect 1 0 2 0;
#X connect 2 1 4 0;
#X connect 2 2 11 0;
#X connect 2 3 15 0;
#X connect 3 0 18 0;
#X connect 4 0 8 0;
#X connect 5 0 3 0;
#X connect 6 0 5 0;
#X connect 7 0 5 0;
#X connect 8 0 6 0;
#X connect 8 1 7 0;
#X connect 9 0 3 0;
#X connect 10 0 9 0;
#X connect 11 0 10 0;
#X connect 11 1 12 0;
#X connect 12 0 9 0;
#X connect 13 0 3 0;
#X connect 14 0 13 0;
#X connect 15 0 14 0;
#X connect 15 1 16 0;
#X connect 16 0 13 0;
#X connect 17 0 0 0;
#X restore 900 88 pd voiceprompts;
#X obj 29 494 r phasorf;
#X obj 103 497 r recordl;
#X text -352 547 To understand this patch \, you may need to look at:
Help > Purd Data > 3 audio.examples/ > B13. sampler.overlap.pd;
#X text 1063 215 Record once soound are detected;
#X text 878 695 This patch is for "SoundPaper" project 2015.05 Wanfang
Diao wanfangdiao.com;
#X connect 1 0 0 0;
#X connect 1 0 83 0;
#X connect 4 0 7 0;
#X connect 4 0 49 0;
#X connect 5 0 7 0;
#X connect 8 0 10 0;
#X connect 8 1 11 0;
#X connect 8 1 53 2;
#X connect 8 2 12 0;
#X connect 8 2 53 0;
#X connect 13 0 15 0;
#X connect 13 1 16 0;
#X connect 13 1 54 2;
#X connect 13 2 17 0;
#X connect 13 2 54 0;
#X connect 18 0 20 0;
#X connect 18 1 21 0;
#X connect 18 1 60 2;
#X connect 18 2 22 0;
#X connect 18 2 60 0;
#X connect 23 0 25 0;
#X connect 23 1 26 0;
#X connect 23 1 64 2;
#X connect 23 2 27 0;
#X connect 23 2 64 0;
#X connect 28 0 30 0;
#X connect 28 1 31 0;
#X connect 28 1 68 2;
#X connect 28 2 32 0;
#X connect 28 2 68 0;
#X connect 33 0 35 0;
#X connect 33 1 36 0;
#X connect 33 1 72 2;
#X connect 33 2 37 0;
#X connect 33 2 72 0;
#X connect 38 0 40 0;
#X connect 38 1 41 0;
#X connect 38 1 76 2;
#X connect 38 2 42 0;
#X connect 38 2 76 0;
#X connect 43 0 8 0;
#X connect 43 1 13 0;
#X connect 43 2 18 0;
#X connect 43 3 23 0;
#X connect 43 4 28 0;
#X connect 43 5 33 0;
#X connect 43 6 38 0;
#X connect 43 7 44 0;
#X connect 44 0 46 0;
#X connect 44 1 47 0;
#X connect 44 1 80 2;
#X connect 44 2 80 0;
#X connect 48 0 8 0;
#X connect 48 0 13 0;
#X connect 48 0 18 0;
#X connect 48 0 23 0;
#X connect 48 0 28 0;
#X connect 48 0 33 0;
#X connect 48 0 38 0;
#X connect 48 0 44 0;
#X connect 49 0 5 0;
#X connect 49 1 55 0;
#X connect 49 2 56 0;
#X connect 50 0 49 1;
#X connect 53 0 52 0;
#X connect 53 0 52 1;
#X connect 54 0 51 0;
#X connect 54 0 51 1;
#X connect 57 0 54 1;
#X connect 58 0 54 3;
#X connect 60 0 59 0;
#X connect 60 0 59 1;
#X connect 61 0 60 1;
#X connect 62 0 60 3;
#X connect 64 0 63 0;
#X connect 64 0 63 1;
#X connect 65 0 64 1;
#X connect 66 0 64 3;
#X connect 68 0 67 0;
#X connect 68 0 67 1;
#X connect 69 0 68 1;
#X connect 70 0 68 3;
#X connect 72 0 71 0;
#X connect 72 0 71 1;
#X connect 73 0 72 1;
#X connect 74 0 72 3;
#X connect 76 0 75 0;
#X connect 76 0 75 1;
#X connect 77 0 76 1;
#X connect 78 0 76 3;
#X connect 80 0 79 0;
#X connect 80 0 79 1;
#X connect 81 0 80 1;
#X connect 82 0 80 3;
#X connect 83 0 43 0;
#X connect 83 1 48 0;
#X connect 83 2 50 0;
#X connect 83 3 84 0;
#X connect 83 3 86 0;
#X connect 86 0 85 0;
#X connect 86 0 85 1;
#X connect 87 0 53 1;
#X connect 88 0 53 3;
